<svg width="20" height="21" viewBox="0 0 20 21" fill="none" xmlns="http://www.w3.org/2000/svg">
<path d="M16.8084 4.49998H3.42693C2.63854 4.49998 2 5.17538 2 5.99998V15C2 15.8295 2.64323 16.5 3.42693 16.5H16.8084C17.5902 16.5 18.2353 15.8323 18.2353 15V5.99998C18.2353 5.17685 17.5993 4.49998 16.8084 4.49998ZM16.6085 5.49998C16.317 5.80482 11.2999 11.0511 11.1266 11.2322C10.8571 11.5156 10.4988 11.6716 10.1176 11.6716C9.7365 11.6716 9.37818 11.5155 9.10776 11.2313C8.99126 11.1095 4.02951 5.92112 3.62676 5.49998H16.6085ZM2.95129 14.7965V6.20415L7.06205 10.5027L2.95129 14.7965ZM3.62737 15.5L7.73651 11.2079L8.43599 11.9393C8.88519 12.4115 9.48241 12.6716 10.1176 12.6716C10.7529 12.6716 11.3501 12.4115 11.7984 11.9403L12.4988 11.2079L16.6079 15.5H3.62737ZM17.284 14.7965L13.1732 10.5027L17.284 6.20415V14.7965Z" fill="url(#paint0_linear_7_750)"/>
<defs>
<linearGradient id="paint0_linear_7_750" x1="0.863529" y1="10.5" x2="19.0471" y2="10.5" gradientUnits="userSpaceOnUse">
<stop stop-color="#8F7047"/>
<stop offset="0.509514" stop-color="#DABD9A"/>
<stop offset="1" stop-color="#A58A63"/>
</linearGradient>
</defs>
</svg>
