<svg width="20" height="21" viewBox="0 0 20 21" fill="none" xmlns="http://www.w3.org/2000/svg">
<path d="M14.861 12.792C14.5534 12.4723 14.1825 12.3013 13.7894 12.3013C13.3994 12.3013 13.0253 12.4691 12.7051 12.7889L11.7032 13.7861C11.6208 13.7418 11.5384 13.7006 11.4591 13.6595C11.345 13.6025 11.2372 13.5487 11.1452 13.4917C10.2068 12.8965 9.35392 12.1209 8.53595 11.1173C8.13964 10.6171 7.87333 10.196 7.67993 9.76866C7.93991 9.53122 8.18086 9.28429 8.41547 9.04685C8.50424 8.95821 8.59302 8.8664 8.68179 8.77775C9.34758 8.11293 9.34758 7.25182 8.68179 6.587L7.81626 5.72273C7.71797 5.62459 7.61652 5.52328 7.52141 5.42197C7.33118 5.22569 7.13144 5.02308 6.92537 4.83313C6.61783 4.52921 6.25006 4.36775 5.86327 4.36775C5.47648 4.36775 5.10236 4.52921 4.78532 4.83313C4.78215 4.83629 4.78215 4.83629 4.77898 4.83946L3.70103 5.92534C3.29521 6.33057 3.06377 6.82444 3.01305 7.39745C2.93696 8.32187 3.20961 9.18298 3.41886 9.7465C3.93247 11.13 4.69972 12.4121 5.84425 13.7861C7.2329 15.4418 8.90372 16.7493 10.8123 17.6706C11.5415 18.0156 12.5148 18.424 13.6023 18.4937C13.6689 18.4969 13.7386 18.5 13.802 18.5C14.5344 18.5 15.1495 18.2373 15.6314 17.7149C15.6346 17.7086 15.6409 17.7054 15.6441 17.6991C15.8089 17.4996 15.9992 17.3192 16.1989 17.126C16.3352 16.9962 16.4747 16.8601 16.6111 16.7177C16.9249 16.3916 17.0898 16.0117 17.0898 15.6223C17.0898 15.2297 16.9218 14.853 16.6015 14.5364L14.861 12.792ZM15.996 16.1256C15.9928 16.1256 15.9928 16.1288 15.996 16.1256C15.8723 16.2586 15.7455 16.3789 15.6092 16.5119C15.4031 16.7082 15.1939 16.9139 14.9973 17.145C14.6771 17.487 14.2998 17.6484 13.8052 17.6484C13.7577 17.6484 13.7069 17.6484 13.6594 17.6452C12.7178 17.5851 11.8427 17.2179 11.1864 16.9044C9.39197 16.037 7.81626 14.8055 6.50687 13.2447C5.42575 11.9436 4.70289 10.7406 4.22415 9.44891C3.9293 8.66062 3.82151 8.04645 3.86906 7.4671C3.90077 7.0967 4.04344 6.78961 4.30658 6.52685L5.3877 5.4473C5.54305 5.30167 5.70792 5.22253 5.86961 5.22253C6.06935 5.22253 6.23104 5.34283 6.33249 5.44413C6.33566 5.4473 6.33883 5.45047 6.34201 5.45363C6.5354 5.63408 6.71929 5.82087 6.91268 6.02032C7.01097 6.12162 7.11242 6.22293 7.21388 6.3274L8.0794 7.19167C8.41547 7.52725 8.41547 7.8375 8.0794 8.17308C7.98746 8.26489 7.89869 8.3567 7.80675 8.44534C7.54043 8.7176 7.2868 8.97087 7.01097 9.2178C7.00463 9.22414 6.99829 9.2273 6.99512 9.23363C6.72246 9.50589 6.77318 9.77182 6.83025 9.95228C6.83342 9.96177 6.83659 9.97127 6.83976 9.98077C7.06487 10.5253 7.38191 11.0382 7.86381 11.6492L7.86699 11.6523C8.74203 12.7287 9.66462 13.5677 10.6823 14.2103C10.8123 14.2926 10.9455 14.3591 11.0723 14.4224C11.1864 14.4794 11.2942 14.5332 11.3862 14.5902C11.3989 14.5965 11.4115 14.606 11.4242 14.6124C11.532 14.6662 11.6335 14.6915 11.7381 14.6915C12.0012 14.6915 12.1661 14.5269 12.22 14.4731L13.3043 13.3904C13.4121 13.2827 13.5833 13.1529 13.783 13.1529C13.9796 13.1529 14.1413 13.2764 14.2396 13.384C14.2427 13.3872 14.2427 13.3872 14.2459 13.3904L15.9928 15.1347C16.3194 15.4577 16.3194 15.7901 15.996 16.1256Z" fill="url(#paint0_linear_7_747)" stroke="url(#paint1_linear_7_747)" stroke-width="0.184028"/>
<path d="M11.1071 7.06815C11.9377 7.20745 12.6923 7.60001 13.2947 8.20152C13.8971 8.80303 14.287 9.5565 14.4297 10.3859C14.4646 10.5949 14.6453 10.7405 14.8514 10.7405C14.8767 10.7405 14.8989 10.7374 14.9243 10.7342C15.1589 10.6962 15.3142 10.4746 15.2762 10.2403C15.105 9.23675 14.6294 8.32182 13.9034 7.59685C13.1774 6.87187 12.2611 6.397 11.2561 6.22604C11.0215 6.18805 10.8027 6.34318 10.7615 6.57428C10.7203 6.80539 10.8725 7.03016 11.1071 7.06815Z" fill="url(#paint2_linear_7_747)" stroke="url(#paint3_linear_7_747)" stroke-width="0.184028"/>
<path d="M17.9934 10.1168C17.7112 8.46425 16.9313 6.96048 15.7328 5.7638C14.5344 4.56711 13.0285 3.78832 11.3735 3.50656C11.142 3.46541 10.9233 3.6237 10.8821 3.8548C10.844 4.08907 10.9994 4.30752 11.234 4.34867C12.7114 4.59877 14.0588 5.29842 15.1305 6.36531C16.2021 7.43536 16.8996 8.78083 17.15 10.2561C17.1849 10.4651 17.3656 10.6107 17.5717 10.6107C17.5971 10.6107 17.6193 10.6075 17.6446 10.6044C17.8761 10.5695 18.0346 10.3479 17.9934 10.1168Z" fill="url(#paint4_linear_7_747)" stroke="url(#paint5_linear_7_747)" stroke-width="0.184028"/>
<defs>
<linearGradient id="paint0_linear_7_747" x1="2.01371" y1="11.4339" x2="17.7943" y2="11.4339" gradientUnits="userSpaceOnUse">
<stop stop-color="#8F7047"/>
<stop offset="0.509514" stop-color="#DABD9A"/>
<stop offset="1" stop-color="#A58A63"/>
</linearGradient>
<linearGradient id="paint1_linear_7_747" x1="2.01371" y1="11.4339" x2="17.7943" y2="11.4339" gradientUnits="userSpaceOnUse">
<stop stop-color="#8F7047"/>
<stop offset="0.509514" stop-color="#DABD9A"/>
<stop offset="1" stop-color="#A58A63"/>
</linearGradient>
<linearGradient id="paint2_linear_7_747" x1="10.4379" y1="8.48042" x2="15.5083" y2="8.48042" gradientUnits="userSpaceOnUse">
<stop stop-color="#8F7047"/>
<stop offset="0.509514" stop-color="#DABD9A"/>
<stop offset="1" stop-color="#A58A63"/>
</linearGradient>
<linearGradient id="paint3_linear_7_747" x1="10.4379" y1="8.48042" x2="15.5083" y2="8.48042" gradientUnits="userSpaceOnUse">
<stop stop-color="#8F7047"/>
<stop offset="0.509514" stop-color="#DABD9A"/>
<stop offset="1" stop-color="#A58A63"/>
</linearGradient>
<linearGradient id="paint4_linear_7_747" x1="10.3777" y1="7.05536" x2="18.3561" y2="7.05536" gradientUnits="userSpaceOnUse">
<stop stop-color="#8F7047"/>
<stop offset="0.509514" stop-color="#DABD9A"/>
<stop offset="1" stop-color="#A58A63"/>
</linearGradient>
<linearGradient id="paint5_linear_7_747" x1="10.3777" y1="7.05536" x2="18.3561" y2="7.05536" gradientUnits="userSpaceOnUse">
<stop stop-color="#8F7047"/>
<stop offset="0.509514" stop-color="#DABD9A"/>
<stop offset="1" stop-color="#A58A63"/>
</linearGradient>
</defs>
</svg>
